<svg xmlns="http://www.w3.org/2000/svg" width="80" height="80" x="0" y="0" version="1.1" viewBox="0 0 768.5 786.6"><path d="m458.6 6.9 3.8 35.2 18.4-30.3 8.8 2-23.8 38.1-10.6-2.4-5.5-44.6 8.9 2zm62.8 24.9-4 10.2 13.9 5.4-2.3 6-13.9-5.4-4.1 10.7 15.6 6-2.4 6.3-23.5-9.1L516 22.5l23.5 9.1-2.4 6.2-15.7-6zm54.9 67.1-7.3-4.3-1.9-34.4-14.5 24.9-7.3-4.3 21.3-36.6 7.3 4.3 1.8 34.6L590.3 58l7.3 4.3-21.3 36.6zm53.1 28.5c-3.4 1.3-7 1.6-10.7.8-3.7-.8-7.3-2.7-10.8-5.6l-11.5-9.7 27.2-32.5 11.5 9.7c3.5 3 6 6.2 7.4 9.7 1.4 3.5 1.8 7 1.1 10.6-.7 3.6-2.4 7-5.1 10.2-2.7 3.3-5.7 5.5-9.1 6.8zm-6.8-7c3.5-.2 6.6-2 9.4-5.3 2.8-3.3 4-6.7 3.6-10.2-.4-3.4-2.3-6.6-5.8-9.6l-4.5-3.8-17.6 21 4.5 3.8c3.5 3 6.9 4.4 10.4 4.1zm68.4 30c.6 3.7.3 7.3-1.1 10.8-1.4 3.5-3.6 6.6-6.8 9.3-3.2 2.7-6.7 4.3-10.4 5-3.7.7-7.4.4-10.8-.9-3.5-1.3-6.5-3.5-9-6.5s-4.1-6.4-4.8-10.1c-.6-3.7-.3-7.3 1.1-10.8 1.4-3.6 3.7-6.7 6.9-9.3 3.2-2.7 6.7-4.3 10.4-5 3.7-.7 7.3-.4 10.8.9 3.5 1.3 6.5 3.5 9 6.5s4.1 6.4 4.7 10.1zm-16.2-9c-2.1-.7-4.2-.8-6.5-.3s-4.5 1.7-6.7 3.5-3.7 3.8-4.6 5.9c-.9 2.2-1.2 4.3-.9 6.5.3 2.2 1.3 4.2 2.9 6.1 1.6 1.9 3.4 3.2 5.5 4 2.1.7 4.2.8 6.5.3s4.5-1.7 6.7-3.5 3.7-3.8 4.6-5.9c.9-2.2 1.2-4.3.9-6.5-.3-2.2-1.3-4.2-2.9-6.1-1.6-2-3.4-3.3-5.5-4zm15.8 80.1 9.2-16.9-1.9-3.2-14.2 8.4-4.3-7.3 36.5-21.5 8.2 13.9c2.5 4.2 3.4 8.1 2.6 11.5-.8 3.4-2.8 6.2-6.2 8.1-2.8 1.6-5.5 2.2-8.3 1.8-2.8-.4-5.3-1.9-7.6-4.5l-9.2 17.7-4.8-8zm12.4-23 3.5 6c2.5 4.2 5.5 5.2 9.2 3 1.8-1 2.8-2.4 3.2-3.9.4-1.6-.1-3.5-1.3-5.6l-3.5-6-11.1 6.5zm18 75.7c-2.1-.3-4-1.3-5.8-2.8-1.8-1.6-3.3-3.8-4.4-6.6-1.1-2.8-1.6-5.5-1.6-8 .1-2.6.7-4.9 2-6.9s3-3.6 5.3-4.7l3.3 8.4c-1.5.8-2.6 2-3.2 3.5-.6 1.5-.6 3.2.2 5 .7 1.6 1.6 2.7 2.8 3.2 1.2.5 2.5.5 3.9 0 1.2-.5 2.1-1.2 2.6-2.3.5-1 .8-2.2.9-3.4.1-1.3 0-3-.1-5.1-.2-2.8-.2-5.1 0-7 .2-1.9.8-3.7 1.9-5.4 1.1-1.7 2.9-3 5.3-4 3.4-1.3 6.5-1.2 9.5.5 2.9 1.7 5.2 4.5 6.8 8.5 1.7 4.2 2 7.9 1 11.1-1 3.3-3.1 5.7-6.3 7.4l-3.4-8.5c1.3-.8 2.2-1.8 2.8-3.2.5-1.3.5-2.8-.2-4.5-.6-1.4-1.4-2.5-2.5-3.1-1.1-.6-2.4-.6-3.8 0-1.2.5-2 1.2-2.5 2.2-.5 1-.8 2.1-.8 3.4-.1 1.3 0 2.9.1 5 .1 2.9.1 5.3-.1 7.2-.2 1.9-.8 3.7-1.9 5.4-1.1 1.7-2.9 3.1-5.5 4.1-2.2.7-4.2.9-6.3.6zM30.4 219.7 69 236l-3.3 7.7-26.9-11.4 22.7 21.3-2.9 6.7-31-1.4 26.8 11.3-3.3 7.8-38.6-16.3 4-9.5 34 .6L26.4 229l4-9.3zm57.7-31.3-9.4 14.2 5.4 7.2-4.9 7.5-26.3-36.1 5.3-8.1 43.5 10.2-4.9 7.5-8.7-2.4zm-6.6-1.6-18.4-4.7 11.5 15.1 6.9-10.4zm22.3-70.2 5 4.5-7.9 8.6 26.3 24.1-5.7 6.2-26.4-24-7.9 8.6-5-4.5 21.6-23.5zm48.8-37.3c4.4 0 8.5 1.5 12.3 4.5l-7 5.5c-2.1-1.2-4.4-1.8-6.7-1.6-2.4.2-4.6 1.1-6.7 2.8-1.8 1.4-3 3.1-3.7 5.1-.7 2-.8 4.1-.3 6.4.5 2.3 1.6 4.5 3.4 6.7 1.7 2.2 3.6 3.8 5.7 4.8s4.2 1.4 6.3 1.2c2.1-.2 4.1-1 5.8-2.4 2.1-1.7 3.6-3.7 4.3-5.9.7-2.2.7-4.6 0-6.9l7-5.5c2 4.4 2.5 8.7 1.4 13-1.1 4.3-3.7 8.1-7.9 11.4-3.2 2.5-6.6 4-10.2 4.5-3.6.5-7.1 0-10.4-1.6-3.4-1.5-6.4-3.9-8.9-7.2-2.6-3.3-4.3-6.8-4.9-10.4-.7-3.6-.4-7.1.9-10.5 1.3-3.3 3.6-6.3 6.8-8.8 4.1-3.5 8.4-5.1 12.8-5.1zm59.3-40.5 20.3 37.3-7.5 4.1-8.8-16.2-15.9 8.7 8.8 16.2-7.4 4.1L181 55.7l7.4-4.1 8.2 15.1 15.9-8.7-8.2-15.1 7.6-4.1zm35.8-14.6 15.1 39.6-7.9 3-15.1-39.6 7.9-3zm73.4 23.1-8.2 1.9-25-23.6 6.6 27.9-8.2 1.9-9.7-41.1 8.2-1.9 25.1 23.8L303.2 8l8.2-1.9 9.7 41.2zm54.7-44.1c3.5 2.4 5.9 5.7 7.1 9.9l-8.9.5c-.9-1.9-2.4-3.3-4.2-4.4-1.9-1-4.1-1.5-6.5-1.4-2.4.1-4.6.8-6.4 2s-3.2 2.9-4.1 5c-.9 2.1-1.3 4.6-1.2 7.4.2 4.4 1.6 7.8 4.1 10.2 2.5 2.3 5.8 3.4 9.9 3.2 3-.2 5.6-1.2 7.7-3.1 2.1-1.9 3.4-4.5 3.8-7.7l-14.3.8-.3-6.1 21.4-1.2.4 8.1c-.4 2.8-1.5 5.5-3.1 7.9-1.6 2.5-3.8 4.5-6.5 6-2.7 1.6-5.9 2.5-9.6 2.7-4.2.2-7.9-.5-11.1-2.1-3.3-1.6-5.9-4-7.8-7.2-1.9-3.2-3-6.8-3.2-11-.2-4.2.4-8 2-11.3 1.6-3.3 3.9-6 6.9-8 3.1-2 6.7-3.1 10.8-3.4 5.2-.2 9.5.8 13.1 3.2zM239.1 514.6l-61.8 52.8c-3.8 3.3-9.6 2.8-12.9-1-1.4-1.7-2.2-3.8-2.2-6V261.8c0-5.1 4.1-9.2 9.2-9.2 2.4 0 4.7 1 6.5 2.7l61.2 60.6c1.7 1.7 2.7 4 2.7 6.5l.6 185.2c-.1 2.7-1.3 5.2-3.3 7z" fill="#c744fd"/><path d="m184.4 239.9 146.4.2c2.8 0 5.4 1.2 7.1 3.4l72.1 88.6c3.2 3.9 2.7 9.7-1.2 12.9-1.6 1.4-3.7 2.1-5.8 2.1l-77.5.2c-2.7 0-5.3-1.2-7.1-3.3l-17.8-21.5c-1.7-2.1-4.3-3.3-7-3.3l-48.2-.4c-2.4 0-4.7-1-6.4-2.6l-61-60.6c-3.6-3.5-3.7-9.3-.1-13 1.7-1.8 4.1-2.8 6.5-2.7z" fill="#c744fd"/><path d="m410.5 361.7-73.8 94.1c-1.7 2.2-4.4 3.5-7.2 3.5H271c-5.1 0-9.2-4.1-9.2-9.2v-.1l.3-61.8c0-5 4.1-9.1 9.2-9.1H294c3 0 5.8-1.5 7.5-3.9l16.8-24.2c1.7-2.5 4.5-3.9 7.5-3.9l77.4-.2c5.1 0 9.2 4.1 9.2 9.1.1 2.1-.6 4.1-1.9 5.7z" fill="#c744fd"/><path d="m361.9 256.1 69.5 87.5c2.6 3.3 2.6 8 0 11.3L350.7 458c-1.3 1.6-2 3.6-1.9 5.7l.7 101.5c0 5.1 4.2 9.1 9.2 9.1 1.7 0 3.3-.5 4.7-1.3l93.3-56.4c2.6-1.6 4.3-4.4 4.4-7.5l2.8-73.1c.2-4.7 3.9-8.6 8.7-8.8l73.3-3.8c1.6-.1 3.2-.6 4.6-1.5l72.9-47.8c4.2-2.8 5.3-8.5 2.5-12.7a9.1 9.1 0 0 0-7.6-4.1l-145.2.7c-5 0-9.1-3.9-9.2-8.9l-1-35.6c-.1-5.1 3.8-9.3 8.9-9.4h115.5c2.4 0 4.7-.9 6.4-2.6L639 257c3.6-3.5 3.7-9.3.1-13-1.7-1.8-4.1-2.7-6.5-2.7H369c-5.1 0-9.1 4.1-9.1 9.2 0 2 .7 4 2 5.6z" fill="#c744fd"/><circle fill="none" cx="383.6" cy="393" r="342" stroke="#c744fd" stroke-miterlimit="10" stroke-width="2"/><path d="m54.8 515.4-44.6 1.5-2.9-10.3 28.1-16.3-32.5.6L0 480.7l38.9-22 2.5 9-30.5 15.5 34.7-.8 2.6 9.2-30 17.4 34.1-2.7 2.5 9.1zM68 543.3l-39.6 18.3-3.6-7.9 39.6-18.3 3.6 7.9zm26.7 47.1-5.9 3.7-6.4-10.2-31.1 19.4-4.6-7.4 31.1-19.4-6.3-10.2 5.9-3.7 17.3 27.8zm36.1 45.2L97.9 664l-5.7-6.6 14.3-12.4-12.2-14.1L80 643.3l-5.7-6.6 32.9-28.4 5.7 6.6-13.3 11.5 12.2 14.1 13.3-11.5 5.7 6.6zm44.7 47.2-6.4 9.2 12.6 8.8-3.8 5.5-12.6-8.8-6.7 9.6 14.1 9.8-4 5.7-21.3-14.8 24.8-35.6 21.3 14.8-3.9 5.7-14.1-9.9zm43 18.9-4.7 36.1 25.7-25.8 8.4 4.1-33 32.3-10-4.9 5.3-45.9 8.3 4.1zm55.2 30.8-3.4 10.7 14.7 4.6-2 6.3-14.7-4.6-3.5 11.2 16.4 5.2-2.1 6.6-24.7-7.8 13-41.5 24.7 7.8-2.1 6.6-16.3-5.1zm70.6 52.6-8.6-1.3-14.8-32.2-4.4 29.3-8.6-1.3 6.5-43 8.6 1.3 14.8 32.4 4.5-29.5 8.6 1.3-6.6 43zm60.2-42.1.1 6.9-12 .1.4 36.6-8.7.1-.4-36.6-11.9.1-.1-6.9 32.6-.3zm68.1 16.8 4 15.6-8.4 2.2-10.9-42.2 15.3-4c5-1.3 9-1.1 12.2.7 3.1 1.7 5.2 4.7 6.3 8.8 1 4 .6 7.6-1.4 10.6-2 3.1-5.4 5.2-10.2 6.5l-6.9 1.8zm10-16.7c-.5-2.1-1.5-3.6-3-4.4-1.4-.8-3.5-.9-6.1-.2l-6 1.6 3.3 13 6-1.6c5-1.3 6.9-4.1 5.8-8.4zm48.1 7.7 13.5-5.6 2.5 6.1-21.5 8.9-16.7-40.2 8-3.3 14.2 34.1zm58.8-32.7-15 9.1 1.9 9.1-7.9 4.8-8.6-45.3 8.5-5.2 36.1 28.7-7.9 4.8-7.1-6zm-5.4-4.5-15-12.4 4 19.1 11-6.7zm71.3-35.4-6.6 5.7-34.3-9.6 19.5 22.5-6.6 5.7-28.7-33 6.6-5.7 34.5 9.8-19.7-22.6 6.6-5.7 28.7 32.9zm45-51-5.5 6.7-35.2-3.5 23 18.6-5.5 6.7-33.8-27.4 5.5-6.7 35.4 3.7-23.1-18.8 5.5-6.7 33.7 27.4zm-10.1-51.7 9.8 5.6 7.7-13.3 5.8 3.3-7.7 13.3 10.1 5.9 8.6-14.9 6 3.5-13 22.4-37.6-21.7 13-22.4 6 3.5-8.7 14.8zm61.6-43.8-19.5 3.2-1.4 3.5 15.7 6.3-3.2 8.1-40.4-16.1 6.1-15.4c1.9-4.7 4.4-7.8 7.7-9.4 3.3-1.5 6.8-1.6 10.5-.1 3.1 1.2 5.3 3.1 6.7 5.6 1.4 2.5 1.8 5.5 1.2 9l20.1-3.7-3.5 9zm-26.5 4.5 2.6-6.6c1.8-4.6.7-7.7-3.4-9.4-1.9-.8-3.7-.8-5.2-.1-1.5.7-2.8 2.2-3.7 4.6l-2.6 6.6 12.3 4.9zm39.3-70.7c1.6 1.5 2.7 3.4 3.3 5.8.6 2.4.6 5.1-.1 8.1s-1.8 5.6-3.4 7.7c-1.6 2.1-3.5 3.7-5.7 4.7s-4.7 1.3-7.3.9l2-9c1.8.2 3.4-.2 4.8-1.1 1.4-.9 2.3-2.4 2.8-4.3.4-1.8.2-3.2-.5-4.4-.7-1.2-1.8-1.9-3.3-2.2-1.3-.3-2.5-.2-3.5.4-1 .6-1.9 1.4-2.7 2.4-.8 1-1.7 2.5-2.9 4.4-1.5 2.4-2.8 4.4-4.1 5.9-1.2 1.5-2.8 2.6-4.7 3.4-1.9.8-4.2.9-6.8.3-3.6-.8-6.2-2.8-7.7-5.9-1.5-3.1-1.8-6.8-.8-11.1 1-4.5 2.9-7.8 5.7-10 2.8-2.2 6-3 9.7-2.6l-2.1 9.1c-1.6-.1-3 .3-4.2 1.1-1.2.8-2 2.1-2.4 3.9-.4 1.6-.2 2.9.4 4.1.6 1.1 1.7 1.9 3.2 2.2 1.2.3 2.4.1 3.3-.4 1-.6 1.9-1.3 2.7-2.4.8-1 1.7-2.4 2.8-4.3 1.6-2.5 3-4.5 4.2-6 1.2-1.5 2.8-2.7 4.8-3.5 2-.8 4.3-.9 7-.3 2.1.6 4 1.6 5.5 3.1z" fill="#c744fd"/></svg>