<svg xmlns="http://www.w3.org/2000/svg" width="80" height="80" x="0" y="0" version="1.1" viewBox="0 0 766.5 759.1"><path d="m481.8 9.1 1.1 23.9 13.7-19.7 5.9 1.7-17.7 24.7-7.1-2-1.8-30.3 5.9 1.7zm59.5 26.6-3.2 6.7 9.1 4.4-1.9 3.9-9.1-4.4-3.3 6.9 10.2 4.9-2 4.1-15.4-7.3L538 29.1l15.4 7.3-2 4.1-10.1-4.8zm50.3 57.2-4.7-3.2.4-23.3-11 16.1-4.7-3.2 16.2-23.7 4.7 3.2-.5 23.5 11-16.2 4.7 3.2-16.1 23.6zM641 127c-2.4.7-4.8.7-7.3 0s-4.8-2.2-7.1-4.3l-7.3-7.1L639.4 95l7.3 7.1c2.2 2.2 3.8 4.5 4.6 6.9.8 2.4.9 4.8.2 7.2-.6 2.4-2 4.6-4 6.7-2 2-4.1 3.4-6.5 4.1zm-4.3-5.1c2.4 0 4.6-1 6.6-3.1 2.1-2.1 3.1-4.4 3-6.7-.1-2.4-1.2-4.6-3.5-6.8l-2.9-2.8-13 13.4 2.9 2.8c2.3 2.1 4.6 3.2 6.9 3.2zm57.3 37.6c.3 2.5-.1 4.9-1.2 7.2-1.1 2.3-2.7 4.3-5 6-2.3 1.7-4.7 2.6-7.2 3-2.6.3-5 0-7.3-1.1-2.3-1-4.2-2.6-5.8-4.8-1.6-2.2-2.5-4.5-2.8-7-.3-2.5.1-4.9 1.2-7.2 1.1-2.3 2.7-4.3 5-6 2.3-1.7 4.7-2.6 7.2-2.9s5 .1 7.3 1.1 4.2 2.6 5.8 4.8c1.6 2.1 2.5 4.4 2.8 6.9zm-10.6-6.8c-1.4-.6-2.8-.7-4.4-.5-1.6.3-3.1.9-4.7 2.1-1.5 1.1-2.7 2.4-3.4 3.8-.7 1.4-1 2.9-.9 4.3.1 1.5.7 2.9 1.7 4.2 1 1.4 2.2 2.3 3.5 2.9 1.4.6 2.8.7 4.4.5 1.6-.3 3.1-.9 4.6-2.1 1.5-1.1 2.7-2.4 3.4-3.8.7-1.4 1-2.9.9-4.3-.1-1.5-.7-2.9-1.7-4.2-.8-1.4-2-2.3-3.4-2.9zm17 71.4 7-11-1.1-2.3-10 5-2.6-5.1 25.6-12.8 4.9 9.8c1.5 3 1.9 5.6 1.2 7.9-.7 2.3-2.2 4-4.6 5.2-1.9 1-3.8 1.2-5.7.8-1.8-.4-3.5-1.5-4.9-3.4l-7.1 11.5-2.7-5.6zm9.4-15 2.1 4.2c1.5 2.9 3.5 3.8 6.1 2.5 1.2-.6 2-1.5 2.4-2.5.3-1.1.1-2.3-.6-3.8l-2.1-4.2-7.9 3.8zm15.6 69.7c-1.4-.3-2.7-1.1-3.8-2.2-1.1-1.1-2-2.7-2.6-4.7-.6-1.9-.8-3.8-.6-5.5.2-1.7.7-3.2 1.7-4.6s2.2-2.3 3.8-2.9l1.8 5.8c-1.1.5-1.9 1.2-2.4 2.2-.5 1-.5 2.1-.2 3.4.4 1.1.9 1.9 1.7 2.3.8.4 1.7.5 2.6.2.9-.3 1.5-.7 1.9-1.4s.7-1.4.8-2.3c.1-.9.2-2 .2-3.5 0-1.9.2-3.5.4-4.7.2-1.3.7-2.4 1.6-3.5.8-1.1 2.1-1.9 3.8-2.4 2.3-.7 4.5-.5 6.4.8 1.9 1.3 3.3 3.3 4.1 6.1.9 2.9.9 5.4.1 7.6-.9 2.2-2.4 3.7-4.7 4.7l-1.8-5.9c.9-.5 1.6-1.1 2-2 .4-.9.5-1.9.1-3-.3-1-.8-1.7-1.6-2.2-.7-.5-1.6-.5-2.6-.2-.8.3-1.4.7-1.8 1.3-.4.6-.6 1.4-.7 2.2-.1.8-.2 2-.2 3.4-.1 2-.2 3.6-.4 4.8-.2 1.3-.7 2.5-1.6 3.6-.8 1.1-2.1 1.9-3.9 2.5-1.3.4-2.7.4-4.1.1zM23.9 252.7l27.1 8.2-1.6 5.4-18.9-5.7 16.8 12.6-1.4 4.7-20.9 1.3 18.9 5.7-1.6 5.5-27.3-8.2 2-6.6 22.9-2.1-18-14.2 2-6.6zm43.4-42.9L62.1 220l4.2 4.4-2.7 5.4-20.5-22.3 3-5.8 30 3.5-2.7 5.4-6.1-.8zm-4.6-.6L50 207.5l8.9 9.3 3.8-7.6zm19.6-65 3.7 2.7-4.7 6.4 19.5 14.2-3.4 4.6-19.5-14.2-4.6 6.4-3.7-2.7 12.7-17.4zm42.3-42.7c3-.3 5.8.3 8.6 2.1l-4.3 4.2c-1.5-.7-3.1-.8-4.6-.6-1.6.3-3 1.1-4.3 2.4-1.1 1.1-1.8 2.3-2.1 3.7-.3 1.4-.2 2.8.3 4.3s1.4 2.9 2.7 4.2c1.3 1.3 2.7 2.3 4.2 2.8s2.9.6 4.3.3 2.6-1 3.7-2.1c1.3-1.3 2.1-2.7 2.4-4.3.3-1.6.1-3.1-.5-4.6l4.3-4.2c1.7 2.8 2.3 5.6 1.9 8.6-.4 3-1.8 5.7-4.4 8.2-1.9 1.9-4.1 3.2-6.4 3.8-2.4.6-4.7.5-7.1-.3-2.4-.8-4.5-2.2-6.5-4.2s-3.4-4.2-4.1-6.6c-.7-2.4-.8-4.7-.2-7.1.6-2.3 1.9-4.5 3.9-6.4 2.5-2.5 5.2-3.9 8.2-4.2zm51.5-43.8 16.4 23.5-4.7 3.3-7.1-10.2-10.1 7 7.1 10.2-4.7 3.3-16.4-23.5 4.7-3.3 6.6 9.5 10.1-7-6.6-9.5 4.7-3.3zm39.4-22.3L228.3 61l-5.1 2.6L210.4 38l5.1-2.6zm68.5 3.7-5.4 1.8-18.3-14.5 6.1 18.5-5.4 1.8-9-27.2 5.4-1.8 18.4 14.6-6.2-18.6 5.4-1.8 9 27.2zm52.3-37.6c2.5 1.4 4.3 3.4 5.4 6.2l-5.9.9c-.8-1.2-1.8-2.1-3.1-2.7-1.3-.6-2.8-.7-4.5-.5-1.6.2-3 .8-4.2 1.8-1.1.9-2 2.2-2.5 3.6-.5 1.5-.6 3.2-.3 5.1.4 3 1.6 5.2 3.4 6.6 1.8 1.4 4.1 1.9 6.9 1.5 2-.3 3.7-1.2 5-2.6 1.3-1.4 2-3.2 2.1-5.4l-9.6 1.4-.6-4.1 14.3-2.1.8 5.5c-.1 1.9-.6 3.8-1.6 5.5-.9 1.8-2.3 3.2-4 4.5-1.7 1.2-3.8 2-6.3 2.4-2.8.4-5.3.2-7.6-.7-2.3-.9-4.2-2.4-5.7-4.4-1.5-2-2.4-4.4-2.9-7.2s-.2-5.4.6-7.7c.8-2.4 2.2-4.3 4.2-5.9 1.9-1.5 4.3-2.5 7.1-2.9 3.5-.6 6.5-.2 9 1.2zM225.7 505.7l-66.7 57c-4.1 3.5-10.4 3.1-13.9-1.1-1.5-1.8-2.4-4.1-2.4-6.4v-322c0-5.5 4.4-9.9 9.9-9.9 2.6 0 5.2 1 7 2.9l66 65.4c1.9 1.8 2.9 4.4 2.9 7l.6 199.7c.1 2.8-1.2 5.6-3.4 7.4zm-58.9-296.2 157.9.2c3 0 5.8 1.3 7.6 3.6l77.7 95.5c3.4 4.2 2.8 10.5-1.4 13.9-1.8 1.4-4 2.2-6.2 2.2l-83.6.2c-2.9 0-5.7-1.3-7.6-3.6l-19.1-23.1c-1.9-2.2-4.6-3.5-7.5-3.6l-52-.5c-2.6 0-5-1-6.9-2.9l-65.9-65.2c-3.9-3.8-3.9-10.1-.1-14 1.9-1.7 4.4-2.7 7.1-2.7zm243.8 131.4-79.5 101.5c-1.9 2.4-4.7 3.8-7.8 3.8h-63.1c-5.5 0-9.9-4.4-9.9-9.9v-.1l.3-66.6c0-5.4 4.4-9.8 9.9-9.8H285c3.2 0 6.3-1.6 8.1-4.2l18.1-26.1c1.8-2.7 4.9-4.2 8.1-4.2l83.5-.2c5.5 0 9.9 4.4 9.9 9.8 0 2.1-.7 4.3-2.1 6z" fill="#c744fd"/><path d="m358.1 227 75 94.3c2.8 3.6 2.8 8.7 0 12.2l-87 111.3c-1.4 1.8-2.1 3.9-2.1 6.2l.7 109.5c0 5.5 4.5 9.9 10 9.8 1.8 0 3.5-.5 5-1.4L460.4 508c2.9-1.7 4.6-4.8 4.8-8.1l3-78.8c.2-5.1 4.3-9.2 9.4-9.5l79-4c1.8-.1 3.5-.6 4.9-1.6l78.6-51.6c8.2-5.4 4.4-18.2-5.5-18.1l-156.5.6c-5.4 0-9.8-4.2-9.9-9.6l-1-38.4c-.2-5.4 4.1-10 9.6-10.1h124.4c2.6 0 5.1-1 6.9-2.8l48.8-48c3.9-3.8 4-10.1.1-14-1.9-1.9-4.4-3-7-3H365.9c-5.5 0-9.9 4.4-9.9 9.9-.1 2.1.7 4.3 2.1 6.1z" fill="#c744fd"/><circle fill="none" cx="383" cy="375.8" r="342" stroke="#c744fd" stroke-miterlimit="10" stroke-width="2"/><path d="m33.6 420.2-31.8-5.5-.4-7.7 22.2-7.4-23.1-4.3-.5-7.7 30.7-9.8.5 6.8L7.3 391l24.6 4.5.5 6.9-23.8 7.9 24.5 3.1.5 6.8zm8.4 42.1-30.3 7.4-1.5-6.1 30.3-7.4 1.5 6.1zM61.4 519l-4.6 1.9-3.2-8-24.3 9.9L27 517l24.3-9.9-3.2-7.9 4.6-1.9 8.7 21.7zm30.3 54.8-26.5 16.5-3.3-5.3 11.5-7.2-7.1-11.4-11.5 7.2-3.3-5.3L78 551.8l3.3 5.3-10.8 6.7 7.1 11.4 10.8-6.7 3.3 5.3zm89.7 96.6-4.5 6.7 9.2 6.2-2.7 4-9.2-6.2-4.7 7 10.3 6.9-2.8 4.1-15.5-10.4 17.5-25.9 15.5 10.4-2.8 4.1-10.3-6.9zm49.4 23-2.6 26 17.8-19.1 6.1 2.8-22.9 23.9-7.3-3.3 2.8-33 6.1 2.7zm60.3 27.5-2 7.8 10.7 2.8-1.2 4.6-10.7-2.8-2.1 8.1 12 3.1-1.2 4.8-18.1-4.7 7.8-30.3 18.1 4.7-1.2 4.8-12.1-2.9zm73.8 38.2-6.2-.5-12.2-22.3-1.7 21.2-6.2-.5 2.5-31.1 6.2.5 12.2 22.5 1.7-21.3 6.2.5-2.5 31zm62.1-33.6.5 4.9-8.6.8 2.5 26.2-6.2.6-2.5-26.2-8.5.8-.5-4.9 23.3-2.2zm132.7-22.4 5.6 10.1-5.5 3-15.1-27.2 9.9-5.5c3.2-1.8 6.1-2.4 8.6-1.7 2.5.6 4.5 2.3 5.9 4.9 1.4 2.6 1.7 5.1.9 7.6-.8 2.5-2.8 4.6-5.9 6.3l-4.4 2.5zm4-13.3c-.8-1.4-1.7-2.2-2.9-2.5-1.1-.3-2.6 0-4.3 1l-3.9 2.2 4.6 8.4 3.9-2.2c3.3-1.9 4.1-4.2 2.6-6.9zm52.6-15.6 8.3-6.5 3 3.8-13.2 10.4-19.4-24.7 4.9-3.9 16.4 20.9zm49.7-48.9-8.4 9.3 3.2 5.9-4.4 4.9-15.1-29.3 4.8-5.3 30.5 12.3-4.4 4.9-6.2-2.7zm-4.6-1.9-12.8-5.5 6.7 12.3 6.1-6.8zm54.2-56.3-3.3 5.3-25.4.6 18 11.2-3.3 5.3-26.5-16.5 3.3-5.3 25.6-.5-18.2-11.3 3.3-5.3 26.5 16.5zm29.4-64-2.3 5.8-24.9 5.3 19.8 7.7-2.3 5.8-29.1-11.4 2.3-5.8 25-5.2-19.9-7.8 2.3-5.8 29.1 11.4zm-12.5-53.5 7.9 1.6 2.2-10.8 4.7 1-2.2 10.8 8.2 1.7 2.5-12.1 4.9 1L757 461l-30.6-6.2 3.7-18.2 4.9 1-2.5 12zm33.8-65.5-12.4 6.9-.1 2.7 12.2.4-.2 6.2-31.2-.9.4-11.9c.1-3.6 1.1-6.4 2.9-8.2 1.8-1.8 4.2-2.7 7.1-2.6 2.4.1 4.3.8 5.9 2.1 1.6 1.4 2.6 3.3 3 5.8l12.7-7.4-.3 6.9zm-16.8 9.6.2-5.1c.1-3.6-1.4-5.4-4.6-5.5-1.5 0-2.7.4-3.6 1.2-.9.8-1.3 2.2-1.4 4l-.2 5.1 9.6.3z" fill="#c744fd"/></svg>