<?xml version="1.0" encoding="utf-8"?>
<!-- Generator: Adobe Illustrator 25.1.0, SVG Export Plug-In . SVG Version: 6.00 Build 0)  -->
<svg version="1.1" id="Layer_1" xmlns="http://www.w3.org/2000/svg" xmlns:xlink="http://www.w3.org/1999/xlink" x="0px" y="0px"
	 viewBox="0 0 766.5 759.1" style="enable-background:new 0 0 766.5 759.1;" xml:space="preserve">
<style type="text/css">
	.st0{enable-background:new    ;}
	.st1{fill:#C744FD;}
	.st2{fill:none;stroke:#C744FD;stroke-width:2;stroke-miterlimit:10;}
</style>
<g>
	<g class="st0">
		<path class="st1" d="M481.8,9.1l1.1,23.9l13.7-19.7l5.9,1.7l-17.7,24.7l-7.1-2l-1.8-30.3L481.8,9.1z"/>
	</g>
	<g class="st0">
		<path class="st1" d="M541.3,35.7l-3.2,6.7l9.1,4.4l-1.9,3.9l-9.1-4.4l-3.3,6.9l10.2,4.9l-2,4.1l-15.4-7.3l12.3-25.8l15.4,7.3
			l-2,4.1L541.3,35.7z"/>
	</g>
	<g class="st0">
		<path class="st1" d="M591.6,92.9l-4.7-3.2l0.4-23.3l-11,16.1l-4.7-3.2l16.2-23.7l4.7,3.2L592,82.3L603,66.1l4.7,3.2L591.6,92.9z"
			/>
	</g>
	<g class="st0">
		<path class="st1" d="M641,127c-2.4,0.7-4.8,0.7-7.3,0c-2.5-0.7-4.8-2.2-7.1-4.3l-7.3-7.1l20.1-20.6l7.3,7.1
			c2.2,2.2,3.8,4.5,4.6,6.9c0.8,2.4,0.9,4.8,0.2,7.2c-0.6,2.4-2,4.6-4,6.7C645.5,124.9,643.4,126.3,641,127z M636.7,121.9
			c2.4,0,4.6-1,6.6-3.1c2.1-2.1,3.1-4.4,3-6.7c-0.1-2.4-1.2-4.6-3.5-6.8l-2.9-2.8l-13,13.4l2.9,2.8
			C632.1,120.8,634.4,121.9,636.7,121.9z"/>
	</g>
	<g class="st0">
		<path class="st1" d="M694,159.5c0.3,2.5-0.1,4.9-1.2,7.2c-1.1,2.3-2.7,4.3-5,6c-2.3,1.7-4.7,2.6-7.2,3c-2.6,0.3-5,0-7.3-1.1
			c-2.3-1-4.2-2.6-5.8-4.8c-1.6-2.2-2.5-4.5-2.8-7c-0.3-2.5,0.1-4.9,1.2-7.2c1.1-2.3,2.7-4.3,5-6c2.3-1.7,4.7-2.6,7.2-2.9
			s5,0.1,7.3,1.1c2.3,1,4.2,2.6,5.8,4.8C692.8,154.7,693.7,157,694,159.5z M683.4,152.7c-1.4-0.6-2.8-0.7-4.4-0.5
			c-1.6,0.3-3.1,0.9-4.7,2.1c-1.5,1.1-2.7,2.4-3.4,3.8c-0.7,1.4-1,2.9-0.9,4.3c0.1,1.5,0.7,2.9,1.7,4.2c1,1.4,2.2,2.3,3.5,2.9
			c1.4,0.6,2.8,0.7,4.4,0.5c1.6-0.3,3.1-0.9,4.6-2.1c1.5-1.1,2.7-2.4,3.4-3.8c0.7-1.4,1-2.9,0.9-4.3c-0.1-1.5-0.7-2.9-1.7-4.2
			C686,154.2,684.8,153.3,683.4,152.7z"/>
	</g>
	<g class="st0">
		<path class="st1" d="M700.4,224.1l7-11l-1.1-2.3l-10,5l-2.6-5.1l25.6-12.8l4.9,9.8c1.5,3,1.9,5.6,1.2,7.9c-0.7,2.3-2.2,4-4.6,5.2
			c-1.9,1-3.8,1.2-5.7,0.8c-1.8-0.4-3.5-1.5-4.9-3.4l-7.1,11.5L700.4,224.1z M709.8,209.1l2.1,4.2c1.5,2.9,3.5,3.8,6.1,2.5
			c1.2-0.6,2-1.5,2.4-2.5c0.3-1.1,0.1-2.3-0.6-3.8l-2.1-4.2L709.8,209.1z"/>
	</g>
	<g class="st0">
		<path class="st1" d="M725.4,278.8c-1.4-0.3-2.7-1.1-3.8-2.2c-1.1-1.1-2-2.7-2.6-4.7c-0.6-1.9-0.8-3.8-0.6-5.5
			c0.2-1.7,0.7-3.2,1.7-4.6s2.2-2.3,3.8-2.9l1.8,5.8c-1.1,0.5-1.9,1.2-2.4,2.2c-0.5,1-0.5,2.1-0.2,3.4c0.4,1.1,0.9,1.9,1.7,2.3
			c0.8,0.4,1.7,0.5,2.6,0.2c0.9-0.3,1.5-0.7,1.9-1.4s0.7-1.4,0.8-2.3c0.1-0.9,0.2-2,0.2-3.5c0-1.9,0.2-3.5,0.4-4.7
			c0.2-1.3,0.7-2.4,1.6-3.5c0.8-1.1,2.1-1.9,3.8-2.4c2.3-0.7,4.5-0.5,6.4,0.8c1.9,1.3,3.3,3.3,4.1,6.1c0.9,2.9,0.9,5.4,0.1,7.6
			c-0.9,2.2-2.4,3.7-4.7,4.7l-1.8-5.9c0.9-0.5,1.6-1.1,2-2c0.4-0.9,0.5-1.9,0.1-3c-0.3-1-0.8-1.7-1.6-2.2c-0.7-0.5-1.6-0.5-2.6-0.2
			c-0.8,0.3-1.4,0.7-1.8,1.3c-0.4,0.6-0.6,1.4-0.7,2.2c-0.1,0.8-0.2,2-0.2,3.4c-0.1,2-0.2,3.6-0.4,4.8c-0.2,1.3-0.7,2.5-1.6,3.6
			c-0.8,1.1-2.1,1.9-3.9,2.5C728.2,279.1,726.8,279.1,725.4,278.8z"/>
	</g>
</g>
<g>
	<g class="st0">
		<path class="st1" d="M23.9,252.7l27.1,8.2l-1.6,5.4l-18.9-5.7l16.8,12.6l-1.4,4.7l-20.9,1.3l18.9,5.7l-1.6,5.5L15,282.2l2-6.6
			l22.9-2.1l-18-14.2L23.9,252.7z"/>
	</g>
	<g class="st0">
		<path class="st1" d="M67.3,209.8l-5.2,10.2l4.2,4.4l-2.7,5.4l-20.5-22.3l3-5.8l30,3.5l-2.7,5.4L67.3,209.8z M62.7,209.2L50,207.5
			l8.9,9.3L62.7,209.2z"/>
	</g>
	<g class="st0">
		<path class="st1" d="M82.3,144.2l3.7,2.7l-4.7,6.4l19.5,14.2l-3.4,4.6l-19.5-14.2l-4.6,6.4l-3.7-2.7L82.3,144.2z"/>
	</g>
	<g class="st0">
		<path class="st1" d="M124.6,101.5c3-0.3,5.8,0.3,8.6,2.1l-4.3,4.2c-1.5-0.7-3.1-0.8-4.6-0.6c-1.6,0.3-3,1.1-4.3,2.4
			c-1.1,1.1-1.8,2.3-2.1,3.7c-0.3,1.4-0.2,2.8,0.3,4.3c0.5,1.5,1.4,2.9,2.7,4.2c1.3,1.3,2.7,2.3,4.2,2.8c1.5,0.5,2.9,0.6,4.3,0.3
			c1.4-0.3,2.6-1,3.7-2.1c1.3-1.3,2.1-2.7,2.4-4.3c0.3-1.6,0.1-3.1-0.5-4.6l4.3-4.2c1.7,2.8,2.3,5.6,1.9,8.6c-0.4,3-1.8,5.7-4.4,8.2
			c-1.9,1.9-4.1,3.2-6.4,3.8c-2.4,0.6-4.7,0.5-7.1-0.3c-2.4-0.8-4.5-2.2-6.5-4.2c-2-2-3.4-4.2-4.1-6.6c-0.7-2.4-0.8-4.7-0.2-7.1
			c0.6-2.3,1.9-4.5,3.9-6.4C118.9,103.2,121.6,101.8,124.6,101.5z"/>
	</g>
	<g class="st0">
		<path class="st1" d="M176.1,57.7l16.4,23.5l-4.7,3.3l-7.1-10.2l-10.1,7l7.1,10.2l-4.7,3.3l-16.4-23.5l4.7-3.3l6.6,9.5l10.1-7
			l-6.6-9.5L176.1,57.7z"/>
	</g>
	<g class="st0">
		<path class="st1" d="M215.5,35.4L228.3,61l-5.1,2.6L210.4,38L215.5,35.4z"/>
	</g>
	<g class="st0">
		<path class="st1" d="M284,39.1l-5.4,1.8l-18.3-14.5l6.1,18.5l-5.4,1.8l-9-27.2l5.4-1.8l18.4,14.6l-6.2-18.6l5.4-1.8L284,39.1z"/>
	</g>
	<g class="st0">
		<path class="st1" d="M336.3,1.5c2.5,1.4,4.3,3.4,5.4,6.2l-5.9,0.9c-0.8-1.2-1.8-2.1-3.1-2.7c-1.3-0.6-2.8-0.7-4.5-0.5
			c-1.6,0.2-3,0.8-4.2,1.8c-1.1,0.9-2,2.2-2.5,3.6c-0.5,1.5-0.6,3.2-0.3,5.1c0.4,3,1.6,5.2,3.4,6.6c1.8,1.4,4.1,1.9,6.9,1.5
			c2-0.3,3.7-1.2,5-2.6c1.3-1.4,2-3.2,2.1-5.4l-9.6,1.4l-0.6-4.1l14.3-2.1l0.8,5.5c-0.1,1.9-0.6,3.8-1.6,5.5c-0.9,1.8-2.3,3.2-4,4.5
			c-1.7,1.2-3.8,2-6.3,2.4c-2.8,0.4-5.3,0.2-7.6-0.7c-2.3-0.9-4.2-2.4-5.7-4.4c-1.5-2-2.4-4.4-2.9-7.2s-0.2-5.4,0.6-7.7
			c0.8-2.4,2.2-4.3,4.2-5.9c1.9-1.5,4.3-2.5,7.1-2.9C330.8-0.3,333.8,0.1,336.3,1.5z"/>
	</g>
</g>
<g>
	<path class="st1" d="M225.7,505.7L159,562.7c-4.1,3.5-10.4,3.1-13.9-1.1c-1.5-1.8-2.4-4.1-2.4-6.4v-322c0-5.5,4.4-9.9,9.9-9.9
		c2.6,0,5.2,1,7,2.9l66,65.4c1.9,1.8,2.9,4.4,2.9,7l0.6,199.7C229.2,501.1,227.9,503.9,225.7,505.7z"/>
	<path class="st1" d="M166.8,209.5l157.9,0.2c3,0,5.8,1.3,7.6,3.6l77.7,95.5c3.4,4.2,2.8,10.5-1.4,13.9c-1.8,1.4-4,2.2-6.2,2.2
		l-83.6,0.2c-2.9,0-5.7-1.3-7.6-3.6l-19.1-23.1c-1.9-2.2-4.6-3.5-7.5-3.6l-52-0.5c-2.6,0-5-1-6.9-2.9l-65.9-65.2
		c-3.9-3.8-3.9-10.1-0.1-14C161.6,210.5,164.1,209.5,166.8,209.5z"/>
	<path class="st1" d="M410.6,340.9l-79.5,101.5c-1.9,2.4-4.7,3.8-7.8,3.8h-63.1c-5.5,0-9.9-4.4-9.9-9.9c0,0,0,0,0-0.1l0.3-66.6
		c0-5.4,4.4-9.8,9.9-9.8H285c3.2,0,6.3-1.6,8.1-4.2l18.1-26.1c1.8-2.7,4.9-4.2,8.1-4.2l83.5-0.2c5.5,0,9.9,4.4,9.9,9.8
		C412.7,337,412,339.2,410.6,340.9z"/>
	<path class="st1" d="M358.1,227l75,94.3c2.8,3.6,2.8,8.7,0,12.2l-87,111.3c-1.4,1.8-2.1,3.9-2.1,6.2l0.7,109.5
		c0,5.5,4.5,9.9,10,9.8c1.8,0,3.5-0.5,5-1.4L460.4,508c2.9-1.7,4.6-4.8,4.8-8.1l3-78.8c0.2-5.1,4.3-9.2,9.4-9.5l79-4
		c1.8-0.1,3.5-0.6,4.9-1.6l78.6-51.6c8.2-5.4,4.4-18.2-5.5-18.1l-156.5,0.6c-5.4,0-9.8-4.2-9.9-9.6l-1-38.4
		c-0.2-5.4,4.1-10,9.6-10.1c0.1,0,0.2,0,0.3,0h124.1c2.6,0,5.1-1,6.9-2.8l48.8-48c3.9-3.8,4-10.1,0.1-14c-1.9-1.9-4.4-3-7-3H365.9
		c-5.5,0-9.9,4.4-9.9,9.9C355.9,223,356.7,225.2,358.1,227z"/>
</g>
<circle class="st2" cx="383" cy="375.8" r="342"/>
<g>
	<g class="st0">
		<path class="st1" d="M33.6,420.2l-31.8-5.5L1.4,407l22.2-7.4l-23.1-4.3L0,387.6l30.7-9.8l0.5,6.8L7.3,391l24.6,4.5l0.5,6.9
			l-23.8,7.9l24.5,3.1L33.6,420.2z"/>
	</g>
	<g class="st0">
		<path class="st1" d="M42,462.3l-30.3,7.4l-1.5-6.1l30.3-7.4L42,462.3z"/>
	</g>
	<g class="st0">
		<path class="st1" d="M61.4,519l-4.6,1.9l-3.2-8l-24.3,9.9l-2.3-5.8l24.3-9.9l-3.2-7.9l4.6-1.9L61.4,519z"/>
	</g>
	<g class="st0">
		<path class="st1" d="M91.7,573.8l-26.5,16.5l-3.3-5.3l11.5-7.2l-7.1-11.4l-11.5,7.2l-3.3-5.3L78,551.8l3.3,5.3l-10.8,6.7l7.1,11.4
			l10.8-6.7L91.7,573.8z"/>
	</g>
</g>
<g>
	<g class="st0">
		<path class="st1" d="M181.4,670.4l-4.5,6.7l9.2,6.2l-2.7,4l-9.2-6.2l-4.7,7l10.3,6.9l-2.8,4.1l-15.5-10.4l17.5-25.9l15.5,10.4
			l-2.8,4.1L181.4,670.4z"/>
	</g>
	<g class="st0">
		<path class="st1" d="M230.8,693.4l-2.6,26l17.8-19.1l6.1,2.8l-22.9,23.9l-7.3-3.3l2.8-33L230.8,693.4z"/>
	</g>
	<g class="st0">
		<path class="st1" d="M291.1,720.9l-2,7.8l10.7,2.8l-1.2,4.6l-10.7-2.8l-2.1,8.1l12,3.1l-1.2,4.8l-18.1-4.7l7.8-30.3l18.1,4.7
			l-1.2,4.8L291.1,720.9z"/>
	</g>
	<g class="st0">
		<path class="st1" d="M364.9,759.1l-6.2-0.5l-12.2-22.3l-1.7,21.2l-6.2-0.5l2.5-31.1l6.2,0.5l12.2,22.5l1.7-21.3l6.2,0.5
			L364.9,759.1z"/>
	</g>
	<g class="st0">
		<path class="st1" d="M427,725.5l0.5,4.9l-8.6,0.8l2.5,26.2l-6.2,0.6l-2.5-26.2l-8.5,0.8l-0.5-4.9L427,725.5z"/>
	</g>
</g>
<g>
	<g class="st0">
		<path class="st1" d="M559.7,703.1l5.6,10.1l-5.5,3L544.7,689l9.9-5.5c3.2-1.8,6.1-2.4,8.6-1.7c2.5,0.6,4.5,2.3,5.9,4.9
			c1.4,2.6,1.7,5.1,0.9,7.6c-0.8,2.5-2.8,4.6-5.9,6.3L559.7,703.1z M563.7,689.8c-0.8-1.4-1.7-2.2-2.9-2.5c-1.1-0.3-2.6,0-4.3,1
			l-3.9,2.2l4.6,8.4l3.9-2.2C564.4,694.8,565.2,692.5,563.7,689.8z"/>
	</g>
	<g class="st0">
		<path class="st1" d="M616.3,674.2l8.3-6.5l3,3.8l-13.2,10.4l-19.4-24.7l4.9-3.9L616.3,674.2z"/>
	</g>
	<g class="st0">
		<path class="st1" d="M666,625.3l-8.4,9.3l3.2,5.9l-4.4,4.9l-15.1-29.3l4.8-5.3l30.5,12.3l-4.4,4.9L666,625.3z M661.4,623.4
			l-12.8-5.5l6.7,12.3L661.4,623.4z"/>
	</g>
	<g class="st0">
		<path class="st1" d="M715.6,567.1l-3.3,5.3l-25.4,0.6l18,11.2l-3.3,5.3l-26.5-16.5l3.3-5.3l25.6-0.5l-18.2-11.3l3.3-5.3
			L715.6,567.1z"/>
	</g>
	<g class="st0">
		<path class="st1" d="M745,503.1l-2.3,5.8l-24.9,5.3l19.8,7.7l-2.3,5.8l-29.1-11.4l2.3-5.8l25-5.2l-19.9-7.8l2.3-5.8L745,503.1z"/>
	</g>
	<g class="st0">
		<path class="st1" d="M732.5,449.6l7.9,1.6l2.2-10.8l4.7,1l-2.2,10.8l8.2,1.7l2.5-12.1l4.9,1l-3.7,18.2l-30.6-6.2l3.7-18.2l4.9,1
			L732.5,449.6z"/>
	</g>
	<g class="st0">
		<path class="st1" d="M766.3,384.1l-12.4,6.9l-0.1,2.7l12.2,0.4l-0.2,6.2l-31.2-0.9l0.4-11.9c0.1-3.6,1.1-6.4,2.9-8.2
			c1.8-1.8,4.2-2.7,7.1-2.6c2.4,0.1,4.3,0.8,5.9,2.1c1.6,1.4,2.6,3.3,3,5.8l12.7-7.4L766.3,384.1z M749.5,393.7l0.2-5.1
			c0.1-3.6-1.4-5.4-4.6-5.5c-1.5,0-2.7,0.4-3.6,1.2c-0.9,0.8-1.3,2.2-1.4,4l-0.2,5.1L749.5,393.7z"/>
	</g>
</g>
</svg>
